<?xml version="1.0" encoding="utf-8"?>
<!-- Generator: Adobe Illustrator 25.0.0, SVG Export Plug-In . SVG Version: 6.00 Build 0)  -->
<svg version="1.1" id="Layer_1" xmlns="http://www.w3.org/2000/svg" xmlns:xlink="http://www.w3.org/1999/xlink" x="0px" y="0px"
	 viewBox="0 0 96 96" style="enable-background:new 0 0 96 96;" xml:space="preserve">
<style type="text/css">
	.st0{fill:#1B7CC1;filter:url(#AI_BevelShadow_1);}
	.st1{fill:#1B7CC1;}
</style>
<filter  height="140%" id="AI_BevelShadow_1" width="140%" x="-20%" y="-20%">
	<feGaussianBlur  in="SourceAlpha" result="blur" stdDeviation="4"></feGaussianBlur>
	<feOffset  dx="4" dy="4" in="blur" result="offsetBlur"></feOffset>
	
		<feSpecularLighting  in="blur" result="specOut" specularConstant="1" specularExponent="10" style="lighting-color:white" surfaceScale="5">
		<fePointLight  x="-5000" y="-10000" z="-20000"></fePointLight>
	</feSpecularLighting>
	<feComposite  in="specOut" in2="SourceAlpha" operator="in" result="specOut"></feComposite>
	<feComposite  in="SourceGraphic" in2="specOut" k1="0" k2="1" k3="1" k4="0" operator="arithmetic" result="litPaint">
		</feComposite>
	<feMerge>
		<feMergeNode  in="offsetBlur"></feMergeNode>
		<feMergeNode  in="litPaint"></feMergeNode>
	</feMerge>
</filter>
<image style="display:none;overflow:visible;filter:url(#AI_BevelShadow_1);enable-background:new    ;" width="1024" height="1087" xlink:href="F81411F9.png"  transform="matrix(0.1271 0 0 0.1271 -16.8277 -20.8269)">
</image>
<path class="st1" d="M63.6,27.9H28.4v13.8h12.2v42.4l0,0C48,84.2,54,78,54,70.4V42.1h11v25.3l0,0c6.7,0,12.2-5.7,12.2-12.6l0,0V42
	l0,0C77.2,34.3,71.1,27.9,63.6,27.9z"/>
<path class="st1" d="M41.1,13.3c3.9-1.4,8-2.2,12.1-2.3c0.8,4.3,4.8,7.1,9,6.3c2.2-0.4,4-1.8,5.2-3.8c10.7,4.1,19,12.9,22.8,24
	c0.1,0.3,0.2,0.5,0.3,0.8c-0.3-1.2-0.7-2.5-1.1-3.7C85.7,23.9,78.2,15,68.5,9.9c0-0.1,0-0.1,0-0.2c0.1-4.4-3.3-8-7.5-8.1
	c-2.7-0.1-5.2,1.3-6.6,3.7c-6.8-0.9-13.7-0.2-20.1,2.2C11.8,15.8,0,41.3,8,64.6c0.8,2.5,1.9,4.9,3.1,7.1c-2.5,4.9-0.8,10.9,3.9,13.6
	c2.5,1.4,5.5,1.6,8.2,0.5c11.1,8.4,26,11.1,39.9,6c7.3-2.7,13.7-7.3,18.6-13.4c-4.1,4.5-9.3,7.9-14.9,10
	c-13.7,5.1-28.3,1.6-38.4-7.8c2.2-5,0-11-4.8-13.2c-1.2-0.6-2.5-0.9-3.8-0.9c-0.4,0-0.8,0-1.1,0.1c-0.3-0.8-0.6-1.6-0.9-2.4
	C10.7,43.5,21.1,20.7,41.1,13.3z"/>
</svg>
